<?xml version="1.0" standalone="no"?>
<!DOCTYPE svg PUBLIC "-//W3C//DTD SVG 20010904//EN"
 "http://www.w3.org/TR/2001/REC-SVG-20010904/DTD/svg10.dtd">
<svg version="1.0" xmlns="http://www.w3.org/2000/svg"
 width="300.000000pt" height="260.000000pt" viewBox="0 0 300.000000 260.000000"
 preserveAspectRatio="xMidYMid meet">
<metadata>
Created by potrace 1.10, written by Peter Selinger 2001-2011
</metadata>
<g transform="translate(0.000000,260.000000) scale(0.100000,-0.100000)"
fill="#ff9000" stroke="none">
<path d="M763 2349 c-131 -132 -242 -250 -246 -262 -29 -77 72 -150 141 -102
28 20 47 10 104 -55 35 -39 51 -71 73 -141 25 -80 33 -94 78 -135 56 -50 120
-86 185 -103 34 -10 42 -16 42 -35 0 -28 29 -56 58 -56 16 0 23 -8 27 -27 11
-53 58 -168 99 -243 40 -74 141 -226 176 -265 11 -12 20 -39 21 -65 6 -89 54
-169 114 -187 30 -10 49 -8 108 8 116 32 151 41 172 44 11 2 20 4 20 5 0 1 9
3 21 4 41 5 113 57 156 114 41 53 110 102 147 102 29 0 79 42 94 78 12 30 25
94 31 147 3 20 18 81 33 128 37 115 -3 244 -102 335 -91 83 -175 111 -199 66
-6 -10 -12 -21 -13 -23 -1 -2 -19 10 -40 27 -80 63 -257 146 -401 188 -7 2
-11 7 -10 11 5 18 -14 52 -31 58 -12 3 -23 23 -31 53 -19 71 -69 159 -117 208
-40 40 -114 76 -177 88 -43 8 -82 34 -128 85 -43 47 -45 53 -41 95 5 39 2 48
-22 70 -20 18 -39 26 -66 26 -36 0 -48 -11 -276 -241z m328 190 c15 -15 20
-29 16 -52 -6 -43 12 -75 76 -134 50 -45 101 -70 167 -80 80 -13 196 -151 216
-257 3 -19 18 -48 33 -64 14 -16 33 -42 42 -59 14 -25 26 -32 60 -38 24 -4 58
-13 74 -20 76 -33 143 -66 180 -89 69 -43 134 -76 149 -76 7 0 19 7 26 15 16
19 41 19 66 0 16 -13 16 -14 1 -9 -32 12 -46 -12 -40 -71 7 -64 -16 -136 -50
-160 -24 -17 -97 -20 -97 -4 0 5 5 7 10 4 6 -3 10 -2 10 4 0 13 -66 34 -87 27
-12 -4 -63 24 -148 80 -71 47 -163 106 -203 131 l-73 46 21 22 21 23 62 -40
c34 -22 138 -89 231 -149 93 -60 175 -109 182 -109 8 0 23 -6 35 -12 18 -11
23 -10 45 15 45 52 35 68 -106 159 -48 31 -113 70 -145 88 -33 17 -67 35 -75
40 -46 26 -162 80 -173 80 -21 0 -347 -334 -347 -356 0 -67 259 -498 307 -510
l23 -6 -24 -29 c-21 -24 -24 -37 -20 -77 5 -55 34 -121 66 -153 28 -26 2 -14
-29 14 -13 11 -23 28 -23 38 0 9 -7 30 -15 45 -8 16 -15 43 -15 60 0 21 -20
59 -71 129 -105 148 -196 320 -214 407 -9 39 -32 68 -55 68 -21 0 -40 19 -40
40 0 23 -28 45 -75 60 -77 24 -164 87 -199 141 -9 15 -25 57 -36 94 -20 70
-48 115 -109 171 -36 33 -83 45 -96 24 -10 -16 -72 -12 -89 6 -9 8 -16 30 -16
47 0 28 27 59 233 264 207 208 236 233 265 233 19 0 40 -8 53 -21z m632 -761
c56 -28 104 -54 107 -57 3 -3 30 -19 60 -35 58 -31 230 -144 230 -151 0 -11
-24 -55 -29 -53 -3 2 -51 33 -107 69 -105 69 -313 187 -379 215 l-37 15 23 25
c12 13 24 24 27 24 2 0 49 -23 105 -52z m-107 -128 c116 -81 239 -179 239
-191 0 -5 -3 -8 -7 -6 -4 1 -13 -7 -21 -17 -14 -19 -14 -19 -34 0 -11 10 -67
55 -124 98 -57 44 -116 91 -131 105 -15 13 -31 21 -35 17 -4 -4 -2 -11 5 -15
7 -4 71 -65 142 -136 93 -91 130 -134 129 -149 -3 -37 1 -56 12 -56 8 0 10 18
7 54 -4 42 -2 53 9 49 7 -3 20 0 28 7 22 18 18 4 -7 -31 -21 -28 -21 -32 -8
-77 7 -26 13 -74 12 -106 -1 -49 -8 -70 -35 -115 -38 -60 -101 -102 -152 -100
-17 1 -22 3 -12 6 34 9 17 26 -21 21 -37 -5 -40 -4 -72 43 -18 27 -38 58 -44
68 -6 10 -41 68 -78 129 -37 60 -81 140 -98 176 -30 65 -30 67 -13 91 10 13
20 24 23 24 3 0 28 -45 55 -101 62 -125 163 -291 232 -382 26 -35 38 -43 66
-44 20 -1 40 5 47 13 7 8 16 12 20 10 5 -3 7 13 5 34 -3 32 -1 39 11 34 22 -8
54 26 54 60 0 20 -13 43 -40 75 -38 43 -48 69 -15 42 8 -7 15 -8 15 -3 0 13
-318 339 -324 332 -5 -5 95 -132 246 -312 54 -64 98 -121 98 -126 0 -5 -5 -22
-10 -37 l-11 -27 -37 43 c-123 144 -209 252 -330 418 l-24 33 59 60 c32 32 63
57 69 55 6 -2 51 -32 100 -66z m686 -33 c29 -30 61 -69 71 -88 l18 -34 -23 29
c-42 52 -126 135 -131 130 -3 -3 -8 -1 -12 5 -3 6 1 11 9 11 9 0 39 -24 68
-53z m-61 4 c52 -38 108 -110 118 -154 7 -30 6 -128 -1 -152 -23 -75 -39 -147
-44 -202 -6 -54 -11 -67 -36 -88 -16 -14 -38 -25 -49 -25 -48 0 -109 -45 -186
-138 -45 -53 -56 -58 -183 -87 -41 -9 -101 -26 -133 -37 l-58 -21 -27 20 c-48
36 -82 174 -49 201 6 5 34 13 61 17 86 12 153 69 189 163 21 53 22 113 1 181
-15 51 -15 54 5 75 30 32 95 45 169 32 58 -9 62 -8 96 18 20 15 43 41 52 58
18 34 24 120 11 156 -12 31 2 28 64 -17z m-847 -46 c9 -24 222 -340 287 -427
33 -43 59 -82 59 -87 0 -14 -51 -36 -58 -25 -4 5 -39 55 -78 109 -63 89 -122
178 -189 285 -12 19 -34 55 -49 78 -26 42 -27 45 -10 63 21 23 30 24 38 4z
m1003 -117 c-3 -8 -6 -5 -6 6 -1 11 2 17 5 13 3 -3 4 -12 1 -19z m-488 -7 c12
-8 10 -12 -12 -22 -32 -14 -45 -7 -26 15 16 18 19 19 38 7z m488 -133 c-3 -8
-6 -5 -6 6 -1 11 2 17 5 13 3 -3 4 -12 1 -19z m-45 -160 c-8 -8 -9 -4 -5 13 4
13 8 18 11 10 2 -7 -1 -18 -6 -23z m-12 -112 c0 -3 -4 -8 -10 -11 -5 -3 -10
-1 -10 4 0 6 5 11 10 11 6 0 10 -2 10 -4z m-33 -44 c-10 -10 -24 -19 -33 -19
-12 0 -10 5 7 18 31 24 47 24 26 1z m-107 -46 c0 -2 -9 -6 -20 -9 -11 -3 -18
-1 -14 4 5 9 34 13 34 5z m-72 -51 c-14 -14 -36 -40 -48 -58 -22 -33 -88 -83
-96 -74 -3 3 11 14 30 25 19 11 42 33 52 49 23 37 76 94 82 88 3 -3 -6 -16
-20 -30z m-223 -155 c-11 -5 -31 -8 -45 -8 l-25 0 25 8 c14 4 34 8 45 8 20 1
20 1 0 -8z m-85 -14 c0 -3 -4 -8 -10 -11 -5 -3 -10 -1 -10 4 0 6 5 11 10 11 6
0 10 -2 10 -4z"/>
<path d="M1065 2223 c-99 -22 -186 -130 -185 -229 1 -30 30 -74 49 -74 8 0 6
-10 -4 -30 -19 -37 -19 -79 0 -106 18 -26 75 -54 107 -53 17 0 9 7 -32 27 -69
34 -84 65 -55 120 32 60 84 111 126 124 30 9 39 16 39 34 0 47 114 144 170
144 31 0 51 -20 76 -75 15 -34 18 -37 21 -18 5 26 -16 70 -46 97 -24 22 -69
23 -110 3 -28 -14 -30 -13 -50 14 -22 29 -50 35 -106 22z m95 -49 c0 -24 -12
-30 -72 -37 -59 -7 -118 -77 -118 -141 0 -33 -26 -59 -48 -47 -22 12 -20 86 4
133 35 70 87 108 164 118 58 8 70 3 70 -26z m-63 -99 c-12 -25 -31 -48 -42
-51 -11 -4 -28 -13 -37 -22 -17 -14 -18 -13 -18 7 0 47 36 90 83 101 18 5 33
8 34 9 1 1 -8 -19 -20 -44z"/>
<path d="M1261 2084 c-14 -18 -21 -41 -21 -70 0 -37 -4 -45 -27 -57 -16 -8
-34 -12 -40 -10 -9 3 -13 -5 -13 -24 0 -40 -17 -53 -67 -53 -33 0 -50 -6 -68
-25 -33 -32 -31 -49 5 -75 32 -23 38 -17 15 14 -22 29 -18 43 14 54 29 10 29
10 24 -22 -10 -61 54 -83 132 -47 106 49 181 195 125 246 -12 11 -29 16 -45
13 -19 -4 -25 -1 -25 12 0 10 7 23 15 30 13 11 21 9 45 -9 17 -12 30 -18 30
-13 0 19 -42 62 -60 62 -10 0 -28 -12 -39 -26z m71 -94 c7 -10 6 -31 -2 -60
-28 -104 -199 -206 -226 -135 -9 23 12 42 54 49 44 6 94 54 110 104 6 17 8 32
5 32 -3 0 0 7 7 15 15 19 39 16 52 -5z m-102 -67 c0 -10 -32 -43 -42 -43 -15
0 -8 29 10 39 20 12 32 14 32 4z"/>
<path d="M1375 1750 c-104 -104 -192 -196 -197 -204 -18 -31 18 -65 50 -47 21
12 356 348 378 379 15 22 15 25 -2 43 -9 10 -22 19 -29 19 -6 0 -96 -85 -200
-190z m222 154 c2 -5 -85 -97 -192 -204 -155 -155 -197 -192 -207 -182 -10 10
27 52 182 207 107 107 199 194 204 192 5 -2 11 -8 13 -13z"/>
<path d="M1520 400 c0 -163 1 -170 20 -170 11 0 20 5 20 10 0 7 6 7 19 0 70
-37 141 17 141 107 0 89 -74 149 -134 109 l-26 -16 0 65 c0 58 -2 65 -20 65
-19 0 -20 -7 -20 -170z m131 21 c20 -16 24 -28 23 -76 0 -62 -17 -85 -60 -85
-41 0 -55 26 -52 93 3 54 6 63 28 74 32 16 34 16 61 -6z"/>
<path d="M354 531 c-60 -37 -83 -155 -44 -231 27 -53 68 -73 136 -68 76 6 94
26 94 100 l0 58 -60 0 c-54 0 -60 -2 -60 -21 0 -18 5 -20 38 -17 36 3 37 2 40
-35 3 -32 0 -38 -23 -47 -46 -18 -84 -12 -110 16 -22 24 -25 36 -25 103 1 79
8 99 48 120 33 18 90 -2 98 -35 4 -17 13 -24 30 -24 28 0 29 2 9 40 -30 57
-112 77 -171 41z"/>
<path d="M860 391 l0 -161 64 0 c107 0 145 24 146 92 0 27 -6 41 -24 56 -24
18 -24 19 -5 35 21 18 25 66 9 97 -13 24 -52 36 -127 39 l-63 2 0 -160z m141
109 c12 -7 19 -21 19 -40 0 -36 -23 -50 -79 -50 l-41 0 0 50 0 50 41 0 c22 0
49 -5 60 -10z m13 -136 c20 -19 21 -68 2 -83 -8 -6 -37 -14 -65 -18 l-51 -6 0
62 0 61 49 0 c32 0 55 -6 65 -16z"/>
<path d="M2160 391 l0 -161 58 0 c110 0 172 58 172 159 0 44 -6 65 -25 93 -33
49 -49 56 -134 64 l-71 7 0 -162z m157 95 c26 -22 28 -30 28 -95 0 -62 -3 -73
-25 -95 -16 -16 -42 -27 -72 -31 l-48 -7 0 126 0 126 44 0 c33 0 52 -6 73 -24z"/>
<path d="M2509 535 c-38 -21 -60 -60 -66 -118 -7 -71 10 -130 49 -162 28 -24
39 -27 85 -23 58 5 86 24 102 69 9 26 8 29 -12 29 -16 0 -26 -9 -34 -30 -19
-50 -97 -53 -129 -5 -22 34 -29 101 -15 153 9 33 19 46 45 59 29 13 37 14 62
2 16 -8 33 -24 39 -36 9 -22 41 -37 50 -23 8 12 -38 73 -65 87 -33 17 -79 16
-111 -2z"/>
<path d="M630 443 c-26 -24 -33 -39 -37 -79 -9 -86 28 -134 102 -134 73 0 111
48 102 133 -5 61 -37 96 -94 104 -34 4 -45 1 -73 -24z m105 -28 c51 -50 24
-155 -40 -155 -63 0 -90 106 -40 155 13 14 31 25 40 25 9 0 27 -11 40 -25z"/>
<path d="M1163 450 c-34 -20 -44 -50 -18 -50 8 0 24 9 35 20 25 25 52 26 73 2
32 -35 22 -49 -40 -54 -61 -5 -93 -30 -93 -72 0 -56 88 -89 132 -49 17 15 18
15 18 0 0 -11 8 -17 23 -17 21 0 22 3 19 82 -3 111 -7 125 -42 143 -39 20 -69
19 -107 -5z m105 -132 c6 -50 -75 -78 -102 -35 -15 24 3 50 40 58 46 11 59 6
62 -23z"/>
<path d="M1370 349 c0 -112 1 -119 20 -119 19 0 20 7 20 90 0 96 8 110 60 110
15 0 20 5 18 17 -5 25 -36 28 -59 7 -15 -14 -19 -14 -19 -3 0 8 -9 15 -20 16
-19 2 -20 -4 -20 -118z"/>
<path d="M1798 441 c-27 -24 -32 -36 -36 -89 -4 -58 -3 -63 26 -92 25 -24 39
-30 75 -30 53 0 100 30 80 51 -9 9 -15 8 -28 -5 -36 -36 -115 -4 -115 47 0 16
8 18 78 16 l77 -2 -2 33 c-4 92 -88 131 -155 71z m100 -21 c12 -12 22 -28 22
-38 0 -14 -10 -17 -60 -17 -68 0 -75 11 -35 50 29 30 45 31 73 5z"/>
<path d="M2010 466 c0 -1 -1 -54 -3 -119 -2 -111 -1 -117 18 -117 19 0 20 5
16 81 -4 89 10 119 56 119 16 0 23 6 23 20 0 24 -26 26 -58 4 -18 -12 -22 -13
-22 -1 0 7 -7 14 -15 14 -8 0 -15 -1 -15 -1z"/>
</g>
</svg>
